<svg preserveAspectRatio="xMidYMid meet" data-bbox="3 3.01 185.77 179.78" viewBox="0 0 191.77 185.8" xmlns="http://www.w3.org/2000/svg" data-type="ugc" role="presentation" aria-hidden="true" aria-label="">
    <g>
        <path d="m55.83 119.83-1.24-1.24 8.37-11.28a45.83 45.83 0 0 1-5.9-14.23l-13.9-2.06v-8.23h33.06v.62c0 14.46 11.72 26.18 26.18 26.18l-.37 32.07H93.8l-.59-4" stroke="#e31909" fill="none" stroke-linecap="round" stroke-linejoin="round" stroke-width="6"></path>
        <path d="M104.11 61.86c.33-14.17 11.92-25.57 26.17-25.57s26.18 11.72 26.18 26.18-11.72 26.18-26.18 26.18" stroke="#ffffff" fill="none" stroke-linecap="round" stroke-linejoin="round" stroke-width="6"></path>
        <path d="M129.91 120.72h8.23l2.06-13.9c5.12-1.17 9.92-3.18 14.23-5.9l11.28 8.37 11.63-11.63-8.37-11.28c2.71-4.32 4.73-9.11 5.9-14.23l13.9-2.06V53.64l-13.9-2.06a45.731 45.731 0 0 0-5.9-14.23l8.37-11.28-11.63-11.63-11.28 8.37a46.072 46.072 0 0 0-14.23-5.9l-2.06-13.9h-16.45l-2.06 13.9a45.731 45.731 0 0 0-14.23 5.9l-11.28-8.37-11.63 11.63 8.37 11.28a45.83 45.83 0 0 0-5.9 14.23l-13.9 2.06v8.23" stroke="#ffffff" fill="none" stroke-linecap="round" stroke-linejoin="round" stroke-width="6"></path>
        <path d="m42.33 136.38 36.27-18.21a7.777 7.777 0 0 1 9.85 2.47h0a7.78 7.78 0 0 1-1.88 10.86l-29.32 20.62A19.95 19.95 0 0 0 49 165.47h0a19.235 19.235 0 0 1-10.45 14.37l-5.91 2.95" stroke="#ffffff" fill="none" stroke-linecap="round" stroke-linejoin="round" stroke-width="6"></path>
        <path d="M48.33 109.45c-5.91 1.88-15.08 4.89-17.34 6.2-3.3 1.92-6.75 4.48-8.08 7.34L3 165.82" stroke="#ffffff" fill="none" stroke-linecap="round" stroke-linejoin="round" stroke-width="6"></path>
    </g>
</svg>