<svg preserveAspectRatio="xMidYMid meet" data-bbox="3 3.005 153.2 170.925" viewBox="0 0 159.21 176.94" xmlns="http://www.w3.org/2000/svg" data-type="ugc" role="presentation" aria-hidden="true" aria-label="" style="">
    <g>
        <path d="M121.47 39.27v29.72c0 .59-.25 1.16-.69 1.55h0c-23.45 20.95-58.89 20.95-82.35 0h0c-.44-.39-.69-.96-.69-1.55V39.27" stroke="#e31909" fill="none" stroke-linecap="round" stroke-linejoin="round" stroke-width="6" style=""></path>
        <path d="M75.28 55.55 20.12 30.17c-.36-.17-.36-.69 0-.85L75.28 3.95c2.75-1.26 5.91-1.26 8.66 0l55.15 25.37c.36.17.36.69 0 .85L83.94 55.54a10.393 10.393 0 0 1-8.66 0Z" stroke="#e31909" fill="none" stroke-linecap="round" stroke-linejoin="round" stroke-width="6" style=""></path>
        <path d="M79.6 101.56v45.95h0c-18.66-11.26-41.67-6.84-60.32 4.42V73.21h0c1.66-1 3.36-1.92 5.08-2.74" stroke="#ffffff" fill="none" stroke-linecap="round" stroke-linejoin="round" stroke-width="6" style=""></path>
        <path d="M134.73 70.42c1.76.84 3.5 1.77 5.2 2.8h0v78.72c-18.66-11.26-41.67-15.68-60.32-4.42h0" stroke="#ffffff" fill="none" stroke-linecap="round" stroke-linejoin="round" stroke-width="6"></path>
        <path d="M79.6 164.39c-23.69-13.32-52.91-3.78-76.6 9.54h0v-87.9h5.69" stroke="#ffffff" fill="none" stroke-linecap="round" stroke-linejoin="round" stroke-width="6"></path>
        <path d="M79.6 164.39c23.69-13.32 52.91-3.78 76.6 9.54h0v-87.9h-5.69" stroke="#ffffff" fill="none" stroke-linecap="round" stroke-linejoin="round" stroke-width="6"></path>
    </g>
</svg>
