<svg preserveAspectRatio="xMidYMid meet" data-bbox="3 3 168.98 173.21" viewBox="0 0 174.98 179.21" xmlns="http://www.w3.org/2000/svg" data-type="ugc" role="presentation" aria-hidden="true" aria-label="">
    <g>
        <path stroke="#ffffff" fill="none" stroke-linecap="round" stroke-linejoin="round" stroke-width="6" d="M154.43 76.81v9.24"></path>
        <path stroke="#ffffff" fill="none" stroke-linecap="round" stroke-linejoin="round" stroke-width="6" d="m121.6 76.81-.01 9.24"></path>
        <path stroke="#ffffff" fill="none" stroke-linecap="round" stroke-linejoin="round" stroke-width="6" d="m121.6 25.72-.01 9.25"></path>
        <path stroke="#ffffff" fill="none" stroke-linecap="round" stroke-linejoin="round" stroke-width="6" d="M154.42 26.93v9.24"></path>
        <path stroke="#ffffff" fill="none" stroke-linecap="round" stroke-linejoin="round" stroke-width="6" d="M55.92 76.81v9.24"></path>
        <path stroke="#ffffff" fill="none" stroke-linecap="round" stroke-linejoin="round" stroke-width="6" d="M23.08 76.81v9.24"></path>
        <path stroke="#ffffff" fill="none" stroke-linecap="round" stroke-linejoin="round" stroke-width="6" d="M23.08 25.72v9.25"></path>
        <path stroke="#ffffff" fill="none" stroke-linecap="round" stroke-linejoin="round" stroke-width="6" d="m55.91 26.93-.01 9.24"></path>
        <path stroke="#ffffff" fill="none" stroke-linecap="round" stroke-linejoin="round" stroke-width="6" d="M171.98 25.65 3.02 25.57 49.83 3l75.36.04 46.79 22.61h0z"></path>
        <path stroke="#ffffff" fill="none" stroke-linecap="round" stroke-linejoin="round" stroke-width="6" d="M53.43 75.68 3 75.65 49.81 50.8l75.36.04 46.78 24.89-118.52-.05"></path>
        <path stroke="#ffffff" fill="none" stroke-linecap="round" stroke-linejoin="round" stroke-width="6" d="m69.7 84.93-.01 22.89-28.12 66.52"></path>
        <path stroke="#ffffff" fill="none" stroke-linecap="round" stroke-linejoin="round" stroke-width="6" d="m69.71 59.97-.01 15.48"></path>
        <path stroke="#ffffff" fill="none" stroke-linecap="round" stroke-linejoin="round" stroke-width="6" d="m69.74 10.55-.03 39.93"></path>
        <path stroke="#ffffff" fill="none" stroke-linecap="round" stroke-linejoin="round" stroke-width="6" d="m105.26 50.48.02-39.91"></path>
        <path stroke="#ffffff" fill="none" stroke-linecap="round" stroke-linejoin="round" stroke-width="6" d="m105.24 75.45.02-15.48"></path>
        <path stroke="#ffffff" fill="none" stroke-linecap="round" stroke-linejoin="round" stroke-width="6" d="m133.29 174.39-28.06-66.56.01-22.9"></path>
        <path stroke="#ffffff" fill="none" stroke-linecap="round" stroke-linejoin="round" stroke-width="6" d="m79.47 139.03-33.74 26.86"></path>
        <path stroke="#ffffff" fill="none" stroke-linecap="round" stroke-linejoin="round" stroke-width="6" d="m108.12 116.23-13.05 10.38"></path>
        <path stroke="#ffffff" fill="none" stroke-linecap="round" stroke-linejoin="round" stroke-width="6" d="m66.16 116.23 62.39 49.66"></path>
        <path stroke="#e31909" fill="none" stroke-linecap="round" stroke-linejoin="round" stroke-width="6" d="m155.98 176.21-137.1-.07"></path>
        <path stroke="#ffffff" fill="none" stroke-linecap="round" stroke-linejoin="round" stroke-width="6" d="M69.81 108.24h35.03"></path>
    </g>
</svg>