<svg preserveAspectRatio="xMidYMid meet" data-bbox="3 2.998 173.74 159.492" viewBox="0 0 179.74 165.49" xmlns="http://www.w3.org/2000/svg" data-type="ugc" role="presentation" aria-hidden="true" aria-label="">
    <g>
        <path d="M113.03 38.14c7.52-2.84 14.77-6.37 21.66-10.55l1.96-1.19 3.18 1.85c11.06 6.41 23 11.17 35.44 14.11l1.47.35v33.36c0 16.36-7.38 32.05-20.52 41.81-4.33 3.22-9.15 5.76-14.28 6.72" stroke="#ffffff" fill="none" stroke-linecap="round" stroke-linejoin="round" stroke-width="6"></path>
        <path stroke="#e31909" fill="none" stroke-linecap="round" stroke-linejoin="round" stroke-width="6" d="M162.05 68.16H145.1V51.2h-15.11v16.96h-16.96v15.11h16.96v16.96h15.11V83.27h16.95V68.16h0z"></path>
        <path d="m60.06 154.15-5.81-50.13c-.29-2.47-2.64-4.16-5.07-3.63-7.4 1.61-21.6 4.45-27.02 6.21A27.742 27.742 0 0 0 3 133.12l.16 29.36" stroke="#ffffff" fill="none" stroke-linecap="round" stroke-linejoin="round" stroke-width="6"></path>
        <path d="m76 154.15 5.81-50.14a4.205 4.205 0 0 1 5.06-3.63c7.51 1.61 22.05 4.46 27.49 6.23a27.742 27.742 0 0 1 19.16 26.52l-.16 29.36" stroke="#ffffff" fill="none" stroke-linecap="round" stroke-linejoin="round" stroke-width="6"></path>
        <path d="m23.76 106.37-1.38 2.85a26.56 26.56 0 0 0-2.01 17.28h0" stroke="#ffffff" fill="none" stroke-linecap="round" stroke-linejoin="round" stroke-width="6"></path>
        <path stroke="#ffffff" fill="none" stroke-linecap="round" stroke-linejoin="round" stroke-width="6" d="m22.9 159.21 3.29-1.54"></path>
        <path stroke="#ffffff" fill="none" stroke-linecap="round" stroke-linejoin="round" stroke-width="6" d="m41.14 150.63 3.28-1.54"></path>
        <path d="M44.43 149.09c-.58-2.42-1.46-4.92-2.63-7.4-5.35-11.38-14.82-18.18-21.14-15.21-6.33 2.98-7.13 14.61-1.77 25.99 1.17 2.48 2.53 4.76 4.02 6.75" stroke="#ffffff" fill="none" stroke-linecap="round" stroke-linejoin="round" stroke-width="6"></path>
        <path d="m112.73 106.62.54 1.32c2.16 5.31 2.74 11.1 1.71 16.67" stroke="#ffffff" fill="none" stroke-linecap="round" stroke-linejoin="round" stroke-width="6"></path>
        <path d="M119.37 142.62c-1.33 4.97-6.43 7.91-11.4 6.58-4.97-1.33-7.91-6.43-6.58-11.4 1.33-4.97 6.43-7.91 11.4-6.58s7.91 6.43 6.58 11.4Z" stroke="#ffffff" fill="none" stroke-linecap="round" stroke-linejoin="round" stroke-width="6"></path>
        <path d="M40.18 70.08c5.34 13.88 15.75 23.3 27.71 23.3s22.36-9.41 27.7-23.3" stroke="#ffffff" fill="none" stroke-linecap="round" stroke-linejoin="round" stroke-width="6"></path>
        <path d="M40.18 70.08c-3.12.94-6.82-2.19-8.26-6.99-1.44-4.8-.08-9.44 3.04-10.38l4.89-1.9.47-4.37A24.31 24.31 0 0 1 51.48 28.5a56.084 56.084 0 0 0 37.44 3.64l.12-.03a19.55 19.55 0 0 0 6.48 18.29l.44.38 4.85 1.93c3.12.94 4.48 5.59 3.04 10.38-1.44 4.8-5.14 7.92-8.26 6.99" stroke="#ffffff" fill="none" stroke-linecap="round" stroke-linejoin="round" stroke-width="6"></path>
        <path d="M31 57.76c-1.33-4.46-3.13-12.79-1-22.56.34-1.56 6.06-26.02 27.07-31.24 11.22-2.79 24.13.57 32.09 9.02a29.87 29.87 0 0 1 4.68 6.6c.17.08.48.27.88.56 6.75 4.72 10.52 12.86 10.01 21.29-.27 4.42-1.05 11.3-1.05 14.05" stroke="#ffffff" fill="none" stroke-linecap="round" stroke-linejoin="round" stroke-width="6"></path>
    </g>
</svg>