<svg preserveAspectRatio="xMidYMid meet" data-bbox="3 2.995 158.23 158.978" viewBox="0 0 164.24 164.97" xmlns="http://www.w3.org/2000/svg" data-type="ugc" role="presentation" aria-hidden="true" aria-label="" class="__web-inspector-hide-shortcut__">
    <g>
        <path d="M12.3 98.08h22.48c5.14 0 9.3 4.16 9.3 9.3v54.59H3v-54.59c0-5.14 4.16-9.3 9.3-9.3Z" stroke="#ffffff" fill="none" stroke-linecap="round" stroke-linejoin="round" stroke-width="6"></path>
        <path d="M62.81 133.89h84.38c7.75 0 14.04 6.29 14.04 14.04s-6.29 14.04-14.04 14.04H44.08" stroke="#ffffff" fill="none" stroke-linecap="round" stroke-linejoin="round" stroke-width="6"></path>
        <path d="M45.15 133.89c7.75 0 14.04 6.29 14.04 14.04s-6.29 14.04-14.04 14.04" stroke="#ffffff" fill="none" stroke-linecap="round" stroke-linejoin="round" stroke-width="6"></path>
        <path stroke="#ffffff" fill="none" stroke-linecap="round" stroke-linejoin="round" stroke-width="6" d="M110.182 142.556c2.967 7.164-.435 15.377-7.599 18.344-7.163 2.967-15.376-.435-18.344-7.598-2.967-7.164.435-15.377 7.599-18.345 7.163-2.967 15.376.435 18.344 7.599z"></path>
        <path d="M147.15 161.97c-7.76 0-14.04-6.29-14.04-14.04s6.29-14.04 14.04-14.04" stroke="#ffffff" fill="none" stroke-linecap="round" stroke-linejoin="round" stroke-width="6"></path>
        <path stroke="#ffffff" fill="none" stroke-linecap="round" stroke-linejoin="round" stroke-width="6" d="M15.23 56.64v36.11"></path>
        <path stroke="#ffffff" fill="none" stroke-linecap="round" stroke-linejoin="round" stroke-width="6" d="M31.85 42.69v54.05"></path>
        <path stroke="#ffffff" fill="none" stroke-linecap="round" stroke-linejoin="round" stroke-width="6" d="m92.03 25.13-49.24 11.6"></path>
        <path stroke="#ffffff" fill="none" stroke-linecap="round" stroke-linejoin="round" stroke-width="6" d="M90.6 8.37 26.4 23.52"></path>
        <path d="M108.65 22.71v18.31c0 4.59-3.72 8.31-8.31 8.31s-8.31-3.72-8.31-8.31v-6.33" stroke="#e31909" fill="none" stroke-linecap="round" stroke-linejoin="round" stroke-width="6"></path>
        <path stroke="#ffffff" fill="none" stroke-linecap="round" stroke-linejoin="round" stroke-width="6" d="M25.39 23.323c6.286 1.02 10.555 6.943 9.534 13.228-1.02 6.286-6.942 10.554-13.228 9.534-6.286-1.02-10.554-6.943-9.534-13.228 1.02-6.286 6.943-10.554 13.229-9.534z"></path>
        <path d="M103.09 25.74c-6.19 1.52-12.43-2.27-13.95-8.46-1.52-6.19 2.27-12.43 8.46-13.95 6.19-1.52 12.43 2.27 13.95 8.46 1.52 6.19-2.27 12.43-8.46 13.95Z" stroke="#ffffff" fill="none" stroke-linecap="round" stroke-linejoin="round" stroke-width="6"></path>
        <path stroke="#e31909" fill="none" stroke-linecap="round" stroke-linejoin="round" stroke-width="6" d="m75.14 75.25 13.18-3.67"></path>
        <path d="m88.16 62.69-20.49 7.46a3.916 3.916 0 0 0-2.31 5.25L80.4 95.73" stroke="#e31909" fill="none" stroke-linecap="round" stroke-linejoin="round" stroke-width="6"></path>
        <path stroke="#e31909" fill="none" stroke-linecap="round" stroke-linejoin="round" stroke-width="6" d="m125.84 75.25-13.19-3.67"></path>
        <path d="m112.82 62.69 20.49 7.46c2.15.75 3.21 3.16 2.31 5.25l-15.33 21.27" stroke="#e31909" fill="none" stroke-linecap="round" stroke-linejoin="round" stroke-width="6"></path>
        <path d="M100.49 76.47h0c-3.5 0-6.33-2.84-6.33-6.33v-9.59h12.67v9.59c0 3.5-2.84 6.33-6.33 6.33Z" stroke="#e31909" fill="none" stroke-linecap="round" stroke-linejoin="round" stroke-width="6"></path>
        <path stroke="#ffffff" fill="none" stroke-linecap="round" stroke-linejoin="round" stroke-width="6" d="M33.78 113v20.47H13.31V113h20.47z"></path>
        <path stroke="#e31909" fill="none" stroke-linecap="round" stroke-linejoin="round" stroke-width="6" d="M100.34 49.33v11.22"></path>
    </g>
</svg>