<svg preserveAspectRatio="xMidYMid meet" data-bbox="3.002 2.996 184.817 159.514" viewBox="0 0 190.82 165.51" xmlns="http://www.w3.org/2000/svg" data-type="ugc" role="presentation" aria-hidden="true" aria-label="">
    <g>
        <path d="M24.72 99.74 15.21 82.8c-.06-.11-.13-.22-.19-.32-3.64-5.86-12.68-2.56-11.98 4.3.11 1.08.41 2.16.94 3.18l15.62 33.62c1.32 2.85 3.59 5.16 6.43 6.53l16.11 7.79c4.83 2.34 8 7.1 8.31 12.44" stroke="#e31909" fill="none" stroke-linecap="round" stroke-linejoin="round" stroke-width="6"></path>
        <path d="m49.43 126.06-19.73-10.9a5.42 5.42 0 0 1-2.12-7.37h0a5.42 5.42 0 0 1 7.37-2.12l17.81 9.83c1.22.67 2.67.77 3.97.27l1.17-.45c3.51-1.35 7.41-1.29 10.88.17h0c4.4 1.85 7.61 5.74 8.6 10.41l3.82 19.42" stroke="#e31909" fill="none" stroke-linecap="round" stroke-linejoin="round" stroke-width="6"></path>
        <path d="m48.75 162.51-1.1-7.63a4.16 4.16 0 0 1 3.46-4.71l31.49-5.09c2.3-.37 4.46 1.21 4.79 3.52l1.09 7.5" stroke="#e31909" fill="none" stroke-linecap="round" stroke-linejoin="round" stroke-width="6"></path>
        <path d="m166.1 99.74 9.51-16.94c.06-.11.13-.22.19-.32 3.64-5.86 12.68-2.56 11.98 4.3a8.809 8.809 0 0 1-.94 3.18l-15.62 33.62a13.594 13.594 0 0 1-6.43 6.53l-16.11 7.79c-4.83 2.34-8 7.1-8.31 12.44" stroke="#e31909" fill="none" stroke-linecap="round" stroke-linejoin="round" stroke-width="6"></path>
        <path d="m141.39 126.06 19.73-10.9a5.42 5.42 0 0 0 2.12-7.37h0a5.42 5.42 0 0 0-7.37-2.12l-17.81 9.83a4.72 4.72 0 0 1-3.97.27l-1.17-.45a14.571 14.571 0 0 0-10.88.17h0c-4.4 1.85-7.61 5.74-8.6 10.41l-3.82 19.42" stroke="#e31909" fill="none" stroke-linecap="round" stroke-linejoin="round" stroke-width="6"></path>
        <path d="m142.07 162.51 1.1-7.63a4.16 4.16 0 0 0-3.46-4.71l-31.49-5.09a4.165 4.165 0 0 0-4.79 3.52l-1.09 7.5" stroke="#e31909" fill="none" stroke-linecap="round" stroke-linejoin="round" stroke-width="6"></path>
        <path d="M145.58 60.09c2.12.72 4.44 1.12 6.88 1.12 4.87 0 9.3-1.6 12.54-4.2 1.91-1.52 4.24-2.4 6.68-2.4h.14c5.79 0 10.49 4.7 10.49 10.49v6.74" stroke="#ffffff" fill="none" stroke-linecap="round" stroke-linejoin="round" stroke-width="6"></path>
        <path stroke="#ffffff" fill="none" stroke-linecap="round" stroke-linejoin="round" stroke-width="6" d="M163.219 24.658c5.94 5.94 5.94 15.57 0 21.51-5.94 5.94-15.57 5.94-21.51 0-5.94-5.94-5.94-15.57 0-21.51 5.94-5.94 15.57-5.94 21.51 0z"></path>
        <path d="M58.16 91.18V59.03c0-7.23 5.86-13.08 13.08-13.08h.18c3.04 0 5.96 1.1 8.34 3 4.04 3.24 9.56 5.24 15.65 5.24s11.61-2 15.65-5.24c2.37-1.9 5.29-3 8.34-3h.18c7.23 0 13.08 5.86 13.08 13.08v32.15" stroke="#ffffff" fill="none" stroke-linecap="round" stroke-linejoin="round" stroke-width="6"></path>
        <path stroke="#ffffff" fill="none" stroke-linecap="round" stroke-linejoin="round" stroke-width="6" d="M75.99 78.75v22.34"></path>
        <path stroke="#ffffff" fill="none" stroke-linecap="round" stroke-linejoin="round" stroke-width="6" d="M116.52 78.75v22.34"></path>
        <path stroke="#ffffff" fill="none" stroke-linecap="round" stroke-linejoin="round" stroke-width="6" d="M99.77 3.508c10.202 2.407 16.52 12.63 14.112 22.832-2.407 10.202-12.63 16.52-22.832 14.112-10.202-2.407-16.52-12.63-14.112-22.832C79.345 7.418 89.568 1.1 99.77 3.508z"></path>
        <path d="M45.24 60.09a21.18 21.18 0 0 1-6.89 1.13c-4.87 0-9.3-1.6-12.54-4.2-1.91-1.52-4.24-2.4-6.68-2.4h-.14c-5.79 0-10.49 4.7-10.49 10.49v6.74" stroke="#ffffff" fill="none" stroke-linecap="round" stroke-linejoin="round" stroke-width="6"></path>
        <path stroke="#ffffff" fill="none" stroke-linecap="round" stroke-linejoin="round" stroke-width="6" d="M49.102 24.656c5.94 5.94 5.94 15.57 0 21.51-5.94 5.94-15.57 5.94-21.51 0-5.94-5.94-5.94-15.57 0-21.51 5.94-5.94 15.57-5.94 21.51 0z"></path>
    </g>
</svg>