<svg preserveAspectRatio="xMidYMid meet" data-bbox="2.992 3 171.838 161.312" viewBox="0 0 177.84 167.3" xmlns="http://www.w3.org/2000/svg" data-type="ugc" role="presentation" aria-hidden="true" aria-label="">
    <g>
        <path d="M83.31 74.58h59.85c13.41 0 24.29 10.87 24.29 24.29v3.79" stroke="#ffffff" fill="none" stroke-linecap="round" stroke-linejoin="round" stroke-width="6"></path>
        <path stroke="#ffffff" fill="none" stroke-linecap="round" stroke-linejoin="round" stroke-width="6" d="M114.69 142.61H77.31"></path>
        <path stroke="#ffffff" fill="none" stroke-linecap="round" stroke-linejoin="round" stroke-width="6" d="M129.01 44.06v30.52"></path>
        <path stroke="#ffffff" fill="none" stroke-linecap="round" stroke-linejoin="round" stroke-width="6" d="M144.08 74.58V52.16"></path>
        <path stroke="#ffffff" fill="none" stroke-linecap="round" stroke-linejoin="round" stroke-width="6" d="M148.97 36.5v2.97a4.59 4.59 0 0 1-4.59 4.59h-15.67a4.59 4.59 0 0 1-4.59-4.59V36.5a4.59 4.59 0 0 1 4.59-4.59h15.67a4.59 4.59 0 0 1 4.59 4.59z"></path>
        <path stroke="#e31909" fill="none" stroke-linecap="round" stroke-linejoin="round" stroke-width="6" d="M174.83 133.55c0 16.983-13.767 30.75-30.75 30.75s-30.75-13.767-30.75-30.75 13.767-30.75 30.75-30.75 30.75 13.767 30.75 30.75z"></path>
        <path stroke="#e31909" fill="none" stroke-linecap="round" stroke-linejoin="round" stroke-width="6" d="M156.16 133.55c0 6.672-5.408 12.08-12.08 12.08S132 140.222 132 133.55s5.408-12.08 12.08-12.08 12.08 5.408 12.08 12.08z"></path>
        <path stroke="#e31909" fill="none" stroke-linecap="round" stroke-linejoin="round" stroke-width="6" d="M78.457 110.073c8.29 20.012-1.214 42.954-21.226 51.243-20.012 8.29-42.954-1.213-51.243-21.225-8.29-20.012 1.214-42.954 21.226-51.244 20.011-8.289 42.954 1.214 51.243 21.226z"></path>
        <path d="M92.77 140.84c2.09-5.77 3.23-12 3.23-18.49 0-30.03-24.34-54.37-54.37-54.37-11.74 0-22.61 3.72-31.5 10.05l7.39 10.73" stroke="#ffffff" fill="none" stroke-linecap="round" stroke-linejoin="round" stroke-width="6"></path>
        <path stroke="#e31909" fill="none" stroke-linecap="round" stroke-linejoin="round" stroke-width="6" d="M45.527 104.703c11.258 1.827 18.902 12.435 17.075 23.692-1.828 11.257-12.435 18.902-23.692 17.075-11.257-1.828-18.902-12.435-17.075-23.692 1.828-11.258 12.435-18.902 23.692-17.075z"></path>
        <path stroke="#ffffff" fill="none" stroke-linecap="round" stroke-linejoin="round" stroke-width="6" d="m97.83 26.99 13.28 47.38"></path>
        <path stroke="#ffffff" fill="none" stroke-linecap="round" stroke-linejoin="round" stroke-width="6" d="m24.19 64.43 4.66-36.72"></path>
        <path stroke="#ffffff" fill="none" stroke-linecap="round" stroke-linejoin="round" stroke-width="6" d="M103.01 9.7v4.05c0 3.7-3 6.7-6.7 6.7H26.25c-3.7 0-6.7-3-6.7-6.7V9.7c0-3.7 3-6.7 6.7-6.7h70.06c3.7 0 6.7 3 6.7 6.7z"></path>
        <path stroke="#ffffff" fill="none" stroke-linecap="round" stroke-linejoin="round" stroke-width="6" d="M62.86 20.45v51.2"></path>
    </g>
</svg>
