<svg preserveAspectRatio="xMidYMid meet" data-bbox="3 3.013 150.99 162.117" viewBox="0 0 157 168.13" xmlns="http://www.w3.org/2000/svg" data-type="ugc" role="presentation" aria-hidden="true" aria-label="">
    <g>
        <path d="m98.57 31.48 7.39-7.39c2.72-2.72 4.24-6.43 4.2-10.29l-.07-7.48a1.6 1.6 0 0 0-1.59-1.59l-7.48-.07c-3.85-.04-7.56 1.47-10.29 4.2l-7.39 7.39" stroke="#e31909" fill="none" stroke-linecap="round" stroke-linejoin="round" stroke-width="6"></path>
        <path d="m53.96 3.93 29.39 12.33-16.67 16.67L37.4 10.05l3.56-3.56a11.88 11.88 0 0 1 13-2.55Z" stroke="#e31909" fill="none" stroke-linecap="round" stroke-linejoin="round" stroke-width="6"></path>
        <path stroke="#e31909" fill="none" stroke-linecap="round" stroke-linejoin="round" stroke-width="6" d="m87.86 55.19-5.62-7.38 16.33-16.33 10.26 24.44"></path>
        <path stroke="#e31909" fill="none" stroke-linecap="round" stroke-linejoin="round" stroke-width="6" d="m57.36 45.81 9.32-12.88"></path>
        <path stroke="#e31909" fill="none" stroke-linecap="round" stroke-linejoin="round" stroke-width="6" d="M82.24 47.81 67.79 58.3"></path>
        <path stroke="#ffffff" fill="none" stroke-linecap="round" stroke-linejoin="round" stroke-width="6" d="M103.11 150.59h-8.55"></path>
        <path stroke="#ffffff" fill="none" stroke-linecap="round" stroke-linejoin="round" stroke-width="6" d="M124.28 75.35h-24.27"></path>
        <path d="M145.45 150.59h8.35c.11 0 .19-.09.19-.19v-25.12c0-4.24-2.32-8.15-6.04-10.18l-9.13-4.97c-.19.11-15.02-35.79-18.55-44.33a2.919 2.919 0 0 0-2.71-1.81H84.5" stroke="#ffffff" fill="none" stroke-linecap="round" stroke-linejoin="round" stroke-width="6"></path>
        <path stroke="#ffffff" fill="none" stroke-linecap="round" stroke-linejoin="round" stroke-width="6" d="m99.57 102.52-.19-27.16"></path>
        <path stroke="#ffffff" fill="none" stroke-linecap="round" stroke-linejoin="round" stroke-width="6" d="M138.82 110.12h-33.38"></path>
        <path stroke="#ffffff" fill="none" stroke-linecap="round" stroke-linejoin="round" stroke-width="6" d="M127.621 136.435c7.816 1.844 12.656 9.675 10.812 17.49-1.845 7.816-9.676 12.657-17.492 10.812-7.815-1.845-12.655-9.676-10.81-17.491 1.844-7.816 9.675-12.656 17.49-10.811z"></path>
        <path d="M16.79 152.28 3 117.44l40.79-18.27c3.68-1.65 7.88-1.65 11.56 0l40.79 18.3-14.94 37.7" stroke="#ffffff" fill="none" stroke-linecap="round" stroke-linejoin="round" stroke-width="6"></path>
        <path d="m13.32 110.46 3.65-28.5c.85-6.67 6.63-11.67 13.49-11.67h38.22c6.86 0 12.64 5 13.5 11.67l3.64 28.51" stroke="#ffffff" fill="none" stroke-linecap="round" stroke-linejoin="round" stroke-width="6"></path>
        <path stroke="#ffffff" fill="none" stroke-linecap="round" stroke-linejoin="round" stroke-width="6" d="M38.78 70.29V59.91h21.59v10.38"></path>
    </g>
</svg>