<svg preserveAspectRatio="xMidYMid meet" data-bbox="2.996 3 178.134 165.59" viewBox="0 0 184.13 171.59" xmlns="http://www.w3.org/2000/svg" data-type="ugc" role="presentation" aria-hidden="true" aria-label="">
    <g>
        <path stroke="#ffffff" fill="none" stroke-linecap="round" stroke-linejoin="round" stroke-width="6" d="m38.96 117.06 53.46-42.82 53.46 42.82"></path>
        <path stroke="#ffffff" fill="none" stroke-linecap="round" stroke-linejoin="round" stroke-width="6" d="M135.45 168.59v-47.6"></path>
        <path stroke="#ffffff" fill="none" stroke-linecap="round" stroke-linejoin="round" stroke-width="6" d="m104.95 168.44 30.5.15"></path>
        <path stroke="#ffffff" fill="none" stroke-linecap="round" stroke-linejoin="round" stroke-width="6" d="m49.98 168.59 27.84-.15V131h27.13v37.44"></path>
        <path stroke="#ffffff" fill="none" stroke-linecap="round" stroke-linejoin="round" stroke-width="6" d="M49.98 119.75v48.84"></path>
        <path stroke="#e31909" fill="none" stroke-linecap="round" stroke-linejoin="round" stroke-width="6" d="m152.61 99.8 28.52-36.48h-16.06l11.99-17.99h-15.82l-20.62 29.48h17.74"></path>
        <path d="M100.04 45.33a35.376 35.376 0 0 0-4.28-8.7c-.8-1.18-1.53-2.21-2-2.75-.25.24-.58.65-.97 1.15a34.554 34.554 0 0 0-5.36 10.3" stroke="#e31909" fill="none" stroke-linecap="round" stroke-linejoin="round" stroke-width="6"></path>
        <path d="M85.8 56.09c-.74-.28-11.48-4.57-13.01-14.07-1.43-8.89 4.39-15.62 5.4-16.64 3.87-3.88 8.4-4.81 9.73-8.05C89.77 12.82 86.76 7.24 83.67 3c3.03.3 12.58 1.64 20.17 9.56.87.9 12.1 13.01 7.96 28.14-2.18 7.96-7.51 12.75-9.82 14.6" stroke="#e31909" fill="none" stroke-linecap="round" stroke-linejoin="round" stroke-width="6"></path>
        <path d="M19.95 47.47S2.68 68.14 3 79.33c0 9.36 7.59 16.95 16.95 16.95h0c9.36 0 16.95-7.59 16.95-16.95.32-11.19-16.95-31.86-16.95-31.86h0Z" stroke="#e31909" fill="none" stroke-linecap="round" stroke-linejoin="round" stroke-width="6"></path>
        <path d="M38.89 55.01a93.809 93.809 0 0 1 21.12-10.95" stroke="#ffffff" fill="none" stroke-linecap="round" stroke-linejoin="round" stroke-width="6"></path>
        <path d="M122.73 43.38a94.32 94.32 0 0 1 17.9 8.3" stroke="#ffffff" fill="none" stroke-linecap="round" stroke-linejoin="round" stroke-width="6"></path>
    </g>
</svg>